.
 
http://www.scenetime.com    -   SceneTime [ We been having it ] !!!


How come you press harder on a remote control when you know the battery is dead? so you better seed to get speed ;)

        Seed back for speed


...................................NFO:.................................................[img]http://img135.imageshack.us/img135/7302/f8dum5qsj.jpg[/img]

[color=blue][size=5][b]Tactical.Force.2011.BDRip.XVID.AC3.HQ.Hive-CM8[/b][/size][/color]


[b]Thx Hive


CM8 Doing It Right The First Time :D

Source: Bluray

Video: 720x400 @bitrate 2000 2pass
Audio: English DTS to AC3 5.1 @448
Sample: yes included[/b]


[url]http://www.imdb.com/title/tt1458915/[/url]


General
Complete name                    : Tactical.Force.2011.BDRip.XVID.AC3.HQ.Hive-CM8.avi
Format                           : AVI
Format/Info                      : Audio Video Interleave
File size                        : 1.52 GiB
Duration                         : 1h 28mn
Overall bit rate                 : 2 457 Kbps
Writing application              : Nandub v1.0rc2
Writing library                  : Nandub build 1853/release

Video
ID                               : 0
Format                           : MPEG-4 Visual
Format profile                   : Advanced Simple@L5
Format settings, BVOP            : 2
Format settings, QPel            : Yes
Format settings, GMC             : No warppoints
Format settings, Matrix          : Default (H.263)
Muxing mode                      : Packed bitstream
Codec ID                         : XVID
Codec ID/Hint                    : XviD
Duration                         : 1h 28mn
Bit rate                         : 2 000 Kbps
Width                            : 720 pixels
Height                           : 400 pixels
Display aspect ratio             : 16:9
Frame rate                       : 23.976 fps
Color space                      : YUV
Chroma subsampling               : 4:2:0
Bit depth                        : 8 bits
Scan type                        : Progressive
Compression mode                 : Lossy
Bits/(Pixel*Frame)               : 0.290
Stream size                      : 1.23 GiB (81%)
Writing library                  : XviD 1.2.1 (UTC 2008-12-04)

Audio
ID                               : 1
Format                           : AC-3
Format/Info                      : Audio Coding 3
Mode extension                   : CM (complete main)
Codec ID                         : 2000
Duration                         : 1h 28mn
Bit rate mode                    : Constant
Bit rate                         : 448 Kbps
Channel(s)                       : 6 channels
Channel positions                : Front: L C R, Side: L R, LFE
Sampling rate                    : 48.0 KHz
Bit depth                        : 16 bits
Compression mode                 : Lossy
Stream size                      : 283 MiB (18%)
Alignment                        : Split accross interleaves
Interleave, duration             : 42 ms (1.00 video frame)
Interleave, preload duration     : 500 ms


Michael Jai White	... 	Hunt
Steve Austin	... 	Tate
Michael Shanks	... 	Demetrius
Lexa Doig	... 	Jannard
Darren Shahlavi	... 	Storato


A training exercise for the LAPD SWAT Team goes terribly wrong when they find 
themselves pitted against two rival gangs while trapped in an abandoned Hangar, armed with nothing but blanks. 
  

[img]http://img706.imageshack.us/img706/6006/13161274.png[/img]
[img]http://img97.imageshack.us/img97/4816/ttaa.png[/img]
[img]http://img694.imageshack.us/img694/9903/ttataa.png[/img]
[img]http://img705.imageshack.us/img705/2213/ttatatataa.png[/img]
[img]http://img6.imageshack.us/img6/2293/ttatatatataa.png[/img]
[img]http://img33.imageshack.us/img33/623/ttatatatataataa.png[/img]
[img]http://img694.imageshack.us/img694/3172/ttatatatataataaa.png[/img]
[img]http://img191.imageshack.us/img191/7140/ttatatatatataa.png[/img]





Greetz

ViSiON,SiC,SANTi,3LT0N,MAGNET,THC,T0XiC,LKRG,FANTASIA-PLAY,FANTASIA-M,BHRG,IMAGiNE,WBZ,FLAWL3SS,NOVA,
D2U,Vik,Rapeseed,SAFC,goldadvance,MEMORY100,scumbag,Hero5,KaN1vE,Unevano,Pinnz,Wayne,cedrict wink,
Mr Hive and all P2P groups
Great Work Guys :D

FYS

CM8@hushmail.com